# xmcd
#
# Track frame offsets: 
#        150
#        23935
#        55541
#        86361
#        109252
#        144673
#        164264
#        187120
#        209684
#        233051
#
# Disc length: 3621 seconds
#
# Revision: 1
# Processed by: cddbd v1.5.2PL0 Copyright (c) Steve Scherf et al.
# Submitted via: ExactAudioCopy v0.99pb5
#
DISCID=870e230a
DTITLE=Real Charanga - Real Charanga
DYEAR=1900
DGENRE=Salsa
TTITLE0=Hoy
TTITLE1=Volver
TTITLE2=Lagrimas Negras
TTITLE3=Guaganco
TTITLE4=Obsesion
TTITLE5=Entre rejas
TTITLE6=Inspector charanga
TTITLE7=Reina Isabel
TTITLE8=Faracateo
TTITLE9=Como me acuerdo
EXTD=
EXTT0=
EXTT1=
EXTT2=
EXTT3=
EXTT4=
EXTT5=
EXTT6=
EXTT7=
EXTT8=
EXTT9=
PLAYORDER=
